<svg xmlns="http://www.w3.org/2000/svg" width="173" height="48" viewBox="0 0 173 48"><defs><clipPath id="julha"><path d="M69.17 44.34h3.652v3.612H69.17z"/></clipPath><clipPath id="julhb"><path d="M146.623.6h25.688v39.048h-25.689z"/></clipPath><clipPath id="julhc"><path d="M.4 1.56h43.122v38.476H.4z"/></clipPath></defs><g><g><g><path fill="#67449a" d="M38.969 41.752c.054-.162.13-.305.226-.431.096-.127.205-.238.326-.337a2.5 2.5 0 0 1 .365-.249c.124-.068.24-.122.347-.164.107-.042.195-.07.261-.082.387-.093.76-.075 1.124.048.08.025.16.057.24.094l.23.111c.047.02.07.039.068.055 0 .017-.018.041-.054.076l-.27.239-.269.238a.196.196 0 0 1-.197.043.992.992 0 0 0-.366-.031 1.044 1.044 0 0 0-.274.073c-.108.041-.21.1-.308.179a.947.947 0 0 0-.244.29.738.738 0 0 0-.083.416c.013.192.07.342.173.452.103.109.22.19.354.241a1.391 1.391 0 0 0 .706.075.915.915 0 0 0 .347-.14c.1-.068.189-.151.266-.249l.052-.06a.083.083 0 0 1 .037-.026c.012-.004.027-.002.044.006.017.009.04.02.071.038l.252.124c.082.039.166.082.253.13.06.032.096.06.105.083.01.024.002.064-.024.118a1.144 1.144 0 0 1-.222.338 1.725 1.725 0 0 1-.328.266c-.145.091-.294.17-.451.237-.156.067-.328.11-.515.126-.383.018-.704-.014-.966-.095a2.037 2.037 0 0 1-.65-.323 1.515 1.515 0 0 1-.395-.44c-.091-.161-.16-.311-.204-.45a2.311 2.311 0 0 1-.09-.491 1.368 1.368 0 0 1 .063-.528"/></g><g><path fill="#67449a" d="M43.996 43.855l-.336.016c-.091.008-.145.005-.161-.009-.015-.013-.026-.061-.031-.145-.006-.09-.01-.18-.014-.272l-.015-.271-.078-1.232c-.026-.394-.049-.802-.072-1.226a.355.355 0 0 0-.006-.047.229.229 0 0 1-.006-.04 2.103 2.103 0 0 1-.005-.128c0-.03.01-.055.026-.072a.161.161 0 0 1 .08-.036c.034-.007.086-.012.152-.015l.237-.011.444-.02a118.257 118.257 0 0 0 1.108-.046l.468-.022c.135-.007.228-.012.277-.018.088-.005.143.004.167.027.025.022.04.066.044.13.006.095.01.185.014.27.003.085.01.173.02.263.005.08-.036.121-.123.126-.05.002-.1.003-.148 0-.047 0-.097 0-.147.003l-.917.044-.505.024c-.063.003-.103.013-.118.028-.016.015-.02.05-.012.104l.025.195.025.194c.01.08.057.117.145.113.028 0 .07-.003.121-.006l.163-.008.162-.007.122-.006c.094-.012.141.022.138.102l.023.358c.002.04-.03.065-.096.076a3.069 3.069 0 0 0-.283.024c-.056.007-.11.011-.162.016a6.818 6.818 0 0 1-.121.01.177.177 0 0 0-.098.033c-.02.018-.029.046-.026.086l.027.423c-.004.077.043.113.139.109l.13-.01a2.8 2.8 0 0 1 .13-.009c.168-.005.333-.01.498-.018.164-.008.33-.014.496-.019.067-.003.13-.007.194-.012.062-.005.127-.008.193-.012.058-.002.1.002.123.015.024.014.039.043.047.09l.039.276c.012.091.02.183.027.277.005.076-.006.125-.032.148-.025.024-.081.035-.17.036l-.258.012-.393.02-.472.022c-.166.008-.325.014-.477.02l-.421.018c-.13.006-.23.009-.3.009"/></g><g><path fill="#67449a" d="M46.964 40.323c-.003-.043.003-.073.017-.087.014-.015.047-.025.101-.033.062-.006.146-.012.252-.017.106-.005.213-.008.319-.01.106-.001.2-.004.281-.008.081-.004.132-.008.153-.013.073-.018.127.002.16.057.13.204.251.386.364.544.112.157.219.305.322.444l.305.408c.1.132.203.274.308.425a.872.872 0 0 0 .115.136c.032.039.063.038.094-.005l.58-.926c.03-.048.074-.123.132-.224a22.748 22.748 0 0 0 .435-.793c.058-.135.168-.199.331-.197.126.002.251 0 .376-.004s.25-.008.375-.01a.41.41 0 0 1 .12.01.204.204 0 0 1 .083.032c.022.015.034.041.036.078.01.148.021.295.035.441l.04.442c.024.238.045.477.061.716.018.238.038.477.062.715l.041.44.04.444c.01.064-.003.11-.034.137-.032.027-.084.04-.155.04l-.656.016c-.05.002-.09.002-.119 0a.137.137 0 0 1-.064-.018.079.079 0 0 1-.025-.048 1.073 1.073 0 0 1-.01-.097 67.972 67.972 0 0 0-.048-.714c-.016-.23-.033-.47-.049-.72l-.003-.05a.204.204 0 0 0-.01-.052.444.444 0 0 1-.012-.06c-.004-.02-.014-.031-.03-.03-.014-.003-.032.011-.057.043a.568.568 0 0 1-.05.06l-.49.723a7.882 7.882 0 0 0-.483.81l-.085.14a.17.17 0 0 1-.064.07.252.252 0 0 1-.098.028c-.042.004-.105.007-.188.01a6.652 6.652 0 0 0-.367.019c-.108.016-.182-.022-.22-.114l-.04-.08a1.276 1.276 0 0 0-.039-.074 4.183 4.183 0 0 0-.153-.243 3.596 3.596 0 0 1-.154-.244 4.89 4.89 0 0 0-.115-.187 7.642 7.642 0 0 1-.196-.328 1.382 1.382 0 0 0-.087-.14 2.067 2.067 0 0 0-.094-.138c-.039-.052-.066-.077-.084-.076-.004 0-.005.026-.004.078l.01.207.019.29c.007.109.015.217.024.325l.027.312.019.258.003.06a.29.29 0 0 1-.001.064c-.008.077-.056.114-.143.11-.134.004-.266.01-.397.02-.13.01-.263.014-.397.014-.074 0-.121-.008-.142-.023-.02-.016-.033-.054-.042-.115-.01-.105-.02-.2-.024-.288a8.497 8.497 0 0 0-.025-.287c-.013-.141-.026-.28-.036-.42a25.96 25.96 0 0 1-.036-.559c0-.045-.003-.09-.005-.133l-.02-.296-.018-.303-.023-.35c-.007-.12-.016-.236-.025-.348a27.101 27.101 0 0 1-.023-.304"/></g><g><path fill="#67449a" d="M53.806 43.384l-.337.017c-.09.008-.145.005-.16-.009-.016-.013-.026-.062-.032-.145-.005-.09-.01-.18-.013-.272-.004-.09-.01-.18-.016-.271l-.077-1.232c-.026-.394-.05-.803-.072-1.226a.355.355 0 0 0-.006-.047.213.213 0 0 1-.007-.04 2.103 2.103 0 0 1-.005-.128c0-.031.01-.055.027-.072a.161.161 0 0 1 .08-.037c.034-.006.085-.011.152-.014l.237-.011a73.157 73.157 0 0 1 .992-.041c.197-.007.382-.016.56-.025l.468-.022c.135-.007.227-.012.277-.018.088-.004.143.004.167.026.025.023.04.066.043.131.007.095.01.184.014.27.004.085.01.173.02.262.005.08-.036.122-.123.126-.05.003-.099.003-.147.002a2.03 2.03 0 0 0-.147.001l-.918.045-.504.024c-.063.003-.103.012-.118.027-.016.017-.02.05-.013.105.01.072.017.137.026.195l.025.194c.009.08.057.118.145.113l.121-.006.162-.008a48.411 48.411 0 0 0 .284-.013c.096-.012.142.022.138.102l.023.358c.003.04-.029.065-.095.076a3.069 3.069 0 0 0-.284.024 4.443 4.443 0 0 1-.283.025.182.182 0 0 0-.098.034c-.02.018-.029.046-.026.087l.027.423c-.003.076.044.112.14.108.045-.003.088-.005.13-.01.042-.004.085-.007.13-.009.167-.004.333-.01.497-.019.164-.007.33-.013.497-.018.066-.003.13-.007.193-.012.062-.005.127-.009.193-.012.058-.003.1.002.123.015.024.014.04.044.047.09.014.095.028.186.04.276.012.091.02.183.026.277.005.076-.005.125-.031.148-.026.024-.082.035-.17.036l-.259.013-.393.018-.471.023c-.167.008-.325.015-.478.02l-.42.018c-.13.006-.23.009-.301.008"/></g><g><path fill="#67449a" d="M56.785 39.859c-.003-.058.006-.1.03-.126.024-.026.067-.038.13-.034.146 0 .286-.006.42-.02.136-.014.276-.016.423-.009.092.003.136.042.132.119l.013.192a43.116 43.116 0 0 0 .081 1.118c.009.118.018.213.028.29a.385.385 0 0 0 .019.113c.046-.003.076-.015.092-.037.054-.065.105-.129.154-.192.047-.065.096-.128.147-.193.087-.12.175-.242.26-.367.087-.124.174-.246.262-.366a481.452 481.452 0 0 0 .504-.688.159.159 0 0 1 .054-.038.265.265 0 0 1 .08-.02c.031-.003.076-.007.134-.01l.487-.023c.066-.003.117-.004.15-.004.034 0 .059.005.076.014.018.01.028.029.032.057l.017.11c.01.09.02.222.034.396.013.174.027.366.04.578l.042.656a99.774 99.774 0 0 1 .065 1.11l.015.244.01.112a.443.443 0 0 1-.002.112c-.005.046-.018.078-.038.094-.02.015-.06.023-.117.022a2.862 2.862 0 0 0-.328.013c-.11.01-.22.015-.328.013a.915.915 0 0 0-.134.006c-.052.006-.084.004-.098-.006-.012-.01-.019-.045-.018-.102a.884.884 0 0 0-.01-.147c-.01-.16-.018-.301-.024-.429-.006-.126-.017-.269-.03-.429l-.02-.252c-.007-.084-.016-.168-.025-.251-.002-.026-.011-.043-.028-.053-.018-.006-.036 0-.056.019a.778.778 0 0 0-.058.068c-.155.196-.307.391-.458.585-.15.195-.302.39-.457.586a2.664 2.664 0 0 1-.165.209 2.65 2.65 0 0 0-.164.21.212.212 0 0 1-.176.089 5.46 5.46 0 0 0-.434.016c-.144.01-.289.016-.435.015-.033.002-.055-.004-.067-.018a.14.14 0 0 1-.025-.059l-.005-.073a.392.392 0 0 0-.01-.072 128.164 128.164 0 0 0-.11-1.52.383.383 0 0 1-.014-.114l-.018-.285-.024-.374-.025-.385-.02-.312zm1.854-.574a.524.524 0 0 1-.446-.212.236.236 0 0 1-.039-.134.346.346 0 0 1 .14-.271.53.53 0 0 1 .336-.118c.27-.008.42.115.45.371a.199.199 0 0 1-.027.13.404.404 0 0 1-.098.116.515.515 0 0 1-.145.083z"/></g><g><path fill="#67449a" d="M64.813 42.336l.024.225c.006.056.012.131.018.225.002.04-.005.066-.023.08-.018.013-.055.02-.109.02-.12.001-.241.005-.362.008l-.363.015c-.07.003-.113 0-.128-.01-.016-.01-.027-.046-.035-.107l-.062-.52-.061-.52a5.489 5.489 0 0 1-.004-.058.363.363 0 0 0-.01-.066c-.003-.043-.036-.067-.1-.072a6.807 6.807 0 0 0-.495.022 6.104 6.104 0 0 1-.49.02c-.084 0-.118.038-.106.11.015.177.024.348.026.516.003.166.015.345.035.537.006.025.01.049.014.072a.374.374 0 0 1 .002.074c.003.05-.025.077-.083.08a4.323 4.323 0 0 1-.121.003c-.04 0-.081 0-.123-.002a2.872 2.872 0 0 0-.337.013c-.112.01-.225.016-.337.014a.34.34 0 0 1-.147-.029c-.021-.015-.033-.053-.038-.114a22.618 22.618 0 0 0-.042-.568 14.629 14.629 0 0 1-.036-.566c-.017-.322-.031-.642-.046-.96l-.04-.958-.01-.169c-.004-.068.034-.104.112-.108l.178-.012c.06-.004.122-.006.184-.006.083 0 .164 0 .24-.003.078-.002.158-.001.242.002.084.003.135.01.155.022.02.012.031.054.036.127.015.174.027.328.036.464.008.135.016.288.023.459.004.064.008.116.012.153.005.039.018.066.038.083.019.018.05.027.092.029a8.649 8.649 0 0 0 .564-.03c.127-.011.254-.023.384-.032.083-.004.123-.038.119-.1a.156.156 0 0 1-.007-.053v-.054c-.02-.195-.04-.372-.053-.531-.015-.16-.032-.336-.053-.532-.012-.056.011-.087.07-.09l.767-.037a.582.582 0 0 1 .1 0c.063.005.105.015.125.03.019.015.033.052.041.11a16.576 16.576 0 0 1 .088 1.196l.015.421a51.254 51.254 0 0 0 .056.828l.025.35"/></g><g><path fill="#67449a" d="M65.477 40.793l-.03-.566-.028-.487-.017-.261c-.008-.065-.004-.105.011-.12s.063-.027.142-.033a23.969 23.969 0 0 1 .394-.018l.267-.008c.088-.001.155-.004.2-.006.068 0 .108.004.12.01.014.007.025.039.038.097.016.123.025.245.027.366.001.122.01.244.026.366a.7.7 0 0 0 .014.111.097.097 0 0 0 .029.058.106.106 0 0 0 .063.024 1.183 1.183 0 0 0 .255.013 1.776 1.776 0 0 1 .791.196c.195.103.355.255.48.456.084.133.14.27.17.41.03.14.026.288-.015.443a1.175 1.175 0 0 1-.199.414.884.884 0 0 1-.394.294c-.17.07-.338.116-.502.135l-.518.066-.15.011c-.08.006-.17.01-.275.015l-.31.019a5.915 5.915 0 0 0-.25.02c-.096.008-.156.003-.18-.017-.024-.018-.039-.069-.044-.151-.015-.24-.032-.476-.048-.71a78.52 78.52 0 0 1-.046-.664c-.004-.13-.01-.291-.021-.483zm1.228 1.057c.002.029.01.053.024.072.013.019.037.028.07.026.042-.002.093-.005.153-.01a1.132 1.132 0 0 0 .34-.076.328.328 0 0 0 .123-.074.287.287 0 0 0 .071-.112.495.495 0 0 0 .017-.278.39.39 0 0 0-.052-.124.291.291 0 0 0-.122-.094.924.924 0 0 0-.189-.067 1.257 1.257 0 0 0-.39-.033c-.057.01-.088.037-.089.08zm2.037-2.644c.014-.02.05-.03.11-.03.128-.006.258-.012.386-.02.129-.005.258-.007.388-.006.07 0 .114.008.13.024.015.015.025.055.03.121.017.151.032.294.042.428l.03.428.067 1.053c.023.351.042.702.055 1.054.007.108.013.188.019.236.005.049-.003.081-.025.099-.023.017-.063.025-.124.025a4.636 4.636 0 0 0-.278.008c-.079.007-.156.01-.23.01-.076 0-.153.003-.232.006-.076.004-.126-.003-.152-.019-.026-.017-.042-.06-.046-.128l-.052-.817a48.272 48.272 0 0 0-.059-.822 18.858 18.858 0 0 0-.02-.57l-.026-.506c-.01-.178-.018-.333-.027-.467-.003-.051.002-.087.014-.107z"/></g><g><path fill="#67449a" d="M71.24 42.545l-.337.016c-.091.008-.144.006-.16-.008-.016-.014-.027-.062-.032-.145l-.014-.273c-.003-.09-.009-.18-.014-.271l-.08-1.232a131.69 131.69 0 0 1-.07-1.226.266.266 0 0 0-.006-.046.179.179 0 0 1-.007-.04 1.654 1.654 0 0 1-.004-.128c0-.032.009-.056.026-.073a.16.16 0 0 1 .08-.037 1.25 1.25 0 0 1 .152-.014l.237-.011.443-.02.55-.02.558-.025c.177-.01.333-.016.469-.023.135-.007.227-.012.277-.018.087-.004.143.004.167.027.025.022.039.066.044.13.005.096.01.185.013.27.004.085.01.173.02.263.005.08-.036.121-.123.125-.05.003-.099.004-.147.002a2.01 2.01 0 0 0-.147.002l-.918.044-.505.024c-.063.003-.102.012-.117.028-.016.016-.02.05-.013.104a21.309 21.309 0 0 0 .05.39c.01.079.057.117.145.113l.122-.006.162-.009.162-.007.123-.006c.094-.012.141.023.138.102l.022.358c.003.04-.029.065-.096.076-.029.002-.069.003-.12.008l-.163.016a6.292 6.292 0 0 1-.282.025.19.19 0 0 0-.1.034c-.018.018-.027.046-.025.087l.027.423c-.004.076.043.112.14.108.045-.003.087-.005.13-.01.041-.004.085-.007.13-.008.167-.005.333-.011.497-.019.164-.008.33-.014.497-.019a8.78 8.78 0 0 0 .193-.012l.193-.012c.058-.003.1.003.123.015.024.014.04.044.047.091l.039.275c.012.091.02.183.027.277.005.076-.006.125-.031.148-.026.024-.082.035-.17.036l-.26.013-.392.018-.471.023a31.37 31.37 0 0 1-.478.02l-.421.018a6.032 6.032 0 0 1-.3.009"/></g><g><g/><g clip-path="url(#julha)"><path fill="#67449a" d="M72.742 46.5c.01.206.018.413.027.62.002.093.01.18.02.256.011.078.022.164.032.258.003.054-.002.09-.015.106-.014.017-.05.029-.107.035l-.408.042a17.96 17.96 0 0 1-.408.036c-.078.008-.12-.033-.127-.119a28.997 28.997 0 0 1-.02-.383 30.181 30.181 0 0 0-.022-.382 89.34 89.34 0 0 1-.04-.676 24.439 24.439 0 0 0-.066-.882c-.006-.043-.02-.072-.043-.088-.021-.015-.057-.02-.107-.016-.05.004-.12.007-.212.007l-.363.01c-.12.003-.242.01-.362.02-.079.004-.127.015-.145.031-.018.018-.025.057-.021.119l.06.95c.019.209.035.418.05.629l.05.629c0 .018 0 .032-.004.043 0 .047-.002.084-.005.11-.003.025-.012.043-.027.055a.146.146 0 0 1-.068.023c-.03.003-.07.005-.125.007l-.35.01a4.268 4.268 0 0 1-.35-.002c-.092-.003-.15-.016-.172-.038-.022-.022-.035-.073-.041-.153l-.155-2.443-.047-.722c-.003-.05.001-.08.014-.087.011-.008.049-.012.111-.012.2-.002.397-.008.59-.02l.59-.031c.275-.01.543-.027.805-.05a9.36 9.36 0 0 1 .792-.037c.067-.004.132-.006.194-.007.062 0 .127-.004.194-.007.062-.003.1 0 .116.01.015.011.024.043.029.098l.031.504.021.271c.008.106.017.207.026.305.008.097.02.213.038.345.004.211.011.42.02.626"/></g></g><g><path fill="#67449a" d="M75.21 46.943a.781.781 0 0 0-.104.01.165.165 0 0 0-.055.022.108.108 0 0 0-.034.048 1.176 1.176 0 0 0-.03.089 2.69 2.69 0 0 1-.056.196c-.02.064-.04.13-.056.195-.021.126-.1.19-.237.197-.15.014-.298.025-.446.032-.148.008-.297.016-.446.027-.067.004-.091-.024-.074-.083l.247-.798.239-.804c.048-.162.092-.323.132-.483.04-.16.084-.32.132-.482l.107-.333c.036-.11.07-.222.1-.336a.265.265 0 0 1 .103-.158.372.372 0 0 1 .185-.052 18.128 18.128 0 0 0 .512-.014c.095-.004.191-.01.287-.017l.287-.016.159-.01c.052-.005.105-.009.159-.011a.975.975 0 0 1 .12 0 .165.165 0 0 1 .069.018.12.12 0 0 1 .044.05.847.847 0 0 1 .04.098l.304.833a39.883 39.883 0 0 0 .553 1.45c.081.203.164.41.248.614.031.087.053.151.067.197.012.045.013.077 0 .1-.014.022-.043.035-.085.04a2.39 2.39 0 0 1-.191.006 20.1 20.1 0 0 1-.422.014l-.422.01c-.075 0-.12-.03-.137-.091a2.794 2.794 0 0 0-.042-.164l-.048-.164-.03-.08a1.284 1.284 0 0 1-.03-.08c-.025-.071-.078-.105-.157-.101a1.44 1.44 0 0 1-.159.01c-.052 0-.103.002-.153.005-.1 0-.185.002-.256.004l-.225.005zm.509-1.908c-.009-.01-.02.002-.035.037a.49.49 0 0 1-.033.07l-.141.448-.12.36c-.043.122-.084.243-.12.365-.019.051-.02.084-.004.097.015.014.054.02.116.017.1-.002.201-.005.3-.01l.3-.014c.079-.008.124-.018.136-.031.012-.013.004-.055-.02-.127a15.234 15.234 0 0 0-.135-.435l-.141-.434a.685.685 0 0 1-.028-.096 4.118 4.118 0 0 0-.057-.207z"/></g><g><path fill="#67449a" d="M78.248 44.902l-.013-.346c-.005-.1-.007-.212-.011-.339-.003-.036-.004-.065-.003-.088 0-.021.007-.038.018-.049a.099.099 0 0 1 .052-.024.906.906 0 0 1 .193-.023 2.051 2.051 0 0 0 .24-.012l.143-.009c.03-.001.078-.005.143-.01.067-.005.138-.012.212-.02a4.733 4.733 0 0 1 .362-.031l.244.006.238.007c.189.009.361.047.518.111.156.065.308.143.456.234.021.014.04.028.056.041.015.014.034.03.056.046a1 1 0 0 1 .237.227.559.559 0 0 1 .099.237.79.79 0 0 1-.002.26 2.979 2.979 0 0 1-.068.304c-.072.246-.185.44-.339.582-.153.142-.36.253-.616.334a2.043 2.043 0 0 1-.436.093 4.864 4.864 0 0 1-.452.021c-.097-.003-.155.005-.175.023-.02.017-.028.067-.028.15.004.123.01.247.021.37.01.122.019.245.026.368.005.073-.002.118-.022.137-.02.02-.074.03-.161.03l-.347.006-.353.005c-.08.001-.124-.039-.134-.117a8.407 8.407 0 0 1-.025-.294 21.427 21.427 0 0 0-.018-.292l-.07-1.097-.02-.315a9.959 9.959 0 0 1-.014-.273zm1.288-.125a1.805 1.805 0 0 1-.106.007.236.236 0 0 0-.089.03c-.022.013-.034.038-.036.074.007.105.013.214.017.326.006.113.01.222.012.326.004.054.04.084.105.088.151.007.298-.001.438-.024a1.34 1.34 0 0 0 .404-.137.435.435 0 0 0 .166-.149.35.35 0 0 0-.086-.467.345.345 0 0 0-.186-.07 2.551 2.551 0 0 0-.157-.011l-.173-.006c-.057 0-.124 0-.204.004z"/></g><g><path fill="#67449a" d="M82.051 44.015c-.004-.055.003-.09.017-.108.016-.017.054-.024.112-.024.1-.005.193-.007.282-.008.087 0 .183 0 .287-.003a.368.368 0 0 0 .069.003l.075-.004c.083-.004.133 0 .15.011.018.013.031.055.04.127.016.115.029.23.038.346l.031.347a.175.175 0 0 1 .005.063.175.175 0 0 0 .003.062l.017.056c.006.02.012.04.022.057a.303.303 0 0 0 .096-.06c.178-.16.353-.327.525-.496.174-.17.346-.336.52-.501a.848.848 0 0 1 .132-.097.29.29 0 0 1 .154-.037c.158-.004.315-.009.47-.015.157-.006.314-.01.473-.014.012 0 .027.004.045.014.016.01.028.018.033.026.005.01.003.024-.004.041a.125.125 0 0 1-.022.036c-.15.145-.3.293-.449.443-.148.151-.297.299-.446.444a3.833 3.833 0 0 1-.17.153 3.46 3.46 0 0 0-.168.152c-.055.05-.083.084-.084.102-.001.018.021.055.066.111.091.12.186.237.283.354.097.117.193.234.288.354.131.156.269.325.415.505.144.18.282.347.414.505.035.042.045.082.03.119-.018.036-.055.06-.112.07a.475.475 0 0 1-.069.008l-.074.004a5.366 5.366 0 0 1-.265.019c-.09.004-.178.012-.265.023a.505.505 0 0 1-.249-.023.512.512 0 0 1-.194-.135 6.554 6.554 0 0 1-.209-.246 7.633 7.633 0 0 0-.21-.246l-.282-.315-.283-.315c-.037-.042-.066-.064-.09-.065-.023 0-.055.02-.1.057a.256.256 0 0 0-.102.244c.019.163.034.323.046.483.013.16.025.32.04.482.008.073.005.12-.013.14-.017.02-.065.033-.145.037a14.693 14.693 0 0 1-.806.017c-.096 0-.149-.042-.158-.128a5.818 5.818 0 0 1-.028-.342l-.036-.562-.043-.673-.043-.676-.037-.57-.022-.352"/></g><g><path fill="#67449a" d="M86.272 43.782c-.004-.066.002-.105.02-.119.018-.013.067-.018.146-.015.084.003.168.002.253-.004.086-.006.17-.009.254-.01.05-.002.1-.006.152-.012a.836.836 0 0 1 .16-.002c.063.003.106.018.13.04.025.022.039.062.043.12a.17.17 0 0 1 .006.052v.052l.091 1.432c.003.026.004.05.005.074a.478.478 0 0 0 .011.073c.002.026.013.04.035.047a.064.064 0 0 0 .054-.03.218.218 0 0 0 .069-.086c.196-.267.389-.545.576-.835.189-.29.379-.567.57-.831a.43.43 0 0 1 .165-.163.6.6 0 0 1 .266-.054c.109.006.22.004.335-.005.113-.01.225-.014.334-.016.1.002.165.015.196.039.03.025.047.08.049.167.015.37.035.749.062 1.137.028.39.049.768.064 1.137.005.143.013.275.025.4l.038.398a.653.653 0 0 0 .007.065c.004.018.004.04.002.064a.131.131 0 0 1-.032.082c-.02.02-.05.028-.093.023-.133.003-.27.005-.407.006a6.282 6.282 0 0 0-.412.017 2.11 2.11 0 0 1-.087.002.268.268 0 0 1-.083-.016.123.123 0 0 1-.05-.036.082.082 0 0 1-.024-.052c0-.134-.01-.28-.028-.434a3.808 3.808 0 0 1-.028-.435 12.599 12.599 0 0 0-.02-.399 15.056 15.056 0 0 1-.018-.399.143.143 0 0 0-.008-.032c-.006-.014-.017-.021-.032-.02-.014 0-.023.004-.028.012a12.265 12.265 0 0 0-.575.743c-.185.259-.352.51-.504.757-.03.045-.06.09-.088.135-.029.045-.058.09-.089.135a.23.23 0 0 1-.13.109 1.06 1.06 0 0 1-.326.051c-.048 0-.096.002-.147.005-.083 0-.167.005-.252.015-.085.01-.169.012-.253.01-.096-.003-.155-.015-.175-.036-.019-.02-.03-.074-.032-.161a8.48 8.48 0 0 0-.01-.4c-.005-.133-.013-.265-.022-.4a9.865 9.865 0 0 0-.033-.408l-.038-.41a7.808 7.808 0 0 0-.012-.293 155.93 155.93 0 0 1-.04-.644l-.024-.344-.018-.298"/></g><g><path fill="#67449a" d="M96.536 45.35l.027.619c.002.095.009.18.019.257.012.078.023.164.032.258.004.054-.002.09-.015.107-.014.017-.049.028-.107.035-.137.013-.272.028-.408.04-.135.015-.27.027-.407.037-.078.008-.121-.032-.127-.118a28.516 28.516 0 0 1-.021-.384 30.181 30.181 0 0 0-.021-.382 89.34 89.34 0 0 1-.04-.676 24.766 24.766 0 0 0-.046-.67 2.122 2.122 0 0 0-.02-.211c-.007-.044-.021-.073-.043-.088-.022-.015-.058-.021-.107-.016a34.894 34.894 0 0 0-.575.016c-.12.004-.242.011-.362.02-.079.004-.127.015-.146.032-.017.017-.024.056-.02.118l.06.95c.018.21.035.418.05.629.016.21.032.419.05.63 0 .017 0 .032-.004.042 0 .047-.003.084-.006.11-.002.025-.011.043-.026.055a.146.146 0 0 1-.068.023c-.03.003-.071.005-.126.008l-.349.008a4.017 4.017 0 0 1-.35-.001c-.093-.003-.15-.016-.172-.038-.022-.022-.036-.073-.042-.153l-.155-2.443-.047-.721c-.002-.051.002-.08.014-.088.012-.008.05-.012.112-.011.2-.003.397-.009.59-.02.194-.012.39-.022.59-.032.274-.01.543-.026.804-.05.262-.023.526-.035.792-.037.067-.003.132-.006.194-.007s.127-.003.194-.007c.062-.003.101 0 .117.011.014.01.024.042.028.097l.032.505c.004.076.012.166.02.27l.026.304c.008.098.02.213.038.347.005.21.012.418.02.625"/></g><g><path fill="#67449a" d="M97.303 43.982l-.012-.345c-.005-.1-.008-.213-.012-.34a.832.832 0 0 1-.003-.087c0-.022.007-.039.019-.05a.099.099 0 0 1 .052-.024c.022-.005.053-.01.096-.017a.906.906 0 0 1 .096-.006 2.48 2.48 0 0 0 .24-.011c.05-.005.098-.008.144-.01.029-.001.077-.005.143-.01.067-.005.138-.012.211-.02a4.733 4.733 0 0 1 .362-.032c.083.004.165.006.244.008.08.001.159.004.239.006.188.01.36.047.517.111.156.066.309.144.457.234a.48.48 0 0 1 .055.042l.056.045a1 1 0 0 1 .237.227.567.567 0 0 1 .1.237.794.794 0 0 1-.003.261 3.168 3.168 0 0 1-.067.303c-.073.246-.186.44-.34.583a1.609 1.609 0 0 1-.617.333 2.026 2.026 0 0 1-.435.093 5.05 5.05 0 0 1-.452.022c-.097-.004-.155.004-.175.022-.02.017-.029.067-.027.15.003.123.01.247.02.37.01.122.019.245.027.368.005.073-.003.118-.023.138-.02.018-.073.029-.16.029l-.347.007c-.115 0-.233.003-.354.005-.079 0-.124-.039-.133-.118a8.407 8.407 0 0 1-.025-.294 21.427 21.427 0 0 0-.019-.292l-.07-1.097-.02-.315a9.959 9.959 0 0 1-.014-.273zm1.288-.125a2.592 2.592 0 0 1-.105.008.234.234 0 0 0-.09.028c-.021.014-.034.04-.036.075.007.105.013.215.017.326.006.113.01.222.013.326.003.054.039.084.105.088.15.007.296-.001.437-.024.14-.023.276-.069.405-.137a.435.435 0 0 0 .165-.149.351.351 0 0 0-.272-.537 3.101 3.101 0 0 0-.158-.011l-.171-.006c-.057 0-.125 0-.204.004z"/></g><g><path fill="#67449a" d="M101.107 43.072c-.005-.065.003-.105.02-.119.019-.013.067-.018.146-.015.084.003.169.002.253-.004a3.6 3.6 0 0 1 .254-.009c.05-.003.1-.007.152-.013a.888.888 0 0 1 .16-.002c.063.004.106.018.13.04.025.022.04.063.043.121a.147.147 0 0 1 .006.051v.052l.092 1.433c.001.025.002.05.005.073a.4.4 0 0 0 .01.073c.002.026.013.04.035.047a.065.065 0 0 0 .055-.03.167.167 0 0 0 .04-.04.206.206 0 0 0 .029-.045c.196-.268.387-.546.576-.836.188-.29.378-.567.57-.83a.428.428 0 0 1 .165-.164.607.607 0 0 1 .265-.054c.11.006.221.004.335-.005.114-.01.225-.014.334-.016.1.002.165.016.196.039.03.025.047.08.048.167.016.37.037.749.064 1.137.027.39.048.768.063 1.138.005.142.013.274.025.399a33.48 33.48 0 0 1 .045.463c.004.018.004.04.002.065a.128.128 0 0 1-.033.081c-.019.02-.05.028-.093.023-.132.003-.268.005-.406.006a6.707 6.707 0 0 0-.411.017c-.03.001-.059.003-.088.002a.248.248 0 0 1-.083-.015.13.13 0 0 1-.049-.036.09.09 0 0 1-.025-.053c0-.134-.01-.279-.028-.434a3.808 3.808 0 0 1-.028-.435 18.705 18.705 0 0 0-.019-.399 10.767 10.767 0 0 1-.02-.399.162.162 0 0 0-.007-.032c-.005-.014-.016-.021-.033-.02-.012 0-.021.004-.027.012l-.021.023a12.912 12.912 0 0 0-1.057 1.477l-.09.135c-.028.045-.057.09-.088.135a.226.226 0 0 1-.13.109 1.053 1.053 0 0 1-.326.051c-.047 0-.096.002-.147.005-.082 0-.167.005-.252.015-.085.01-.17.012-.253.01-.096-.003-.154-.015-.174-.036-.02-.02-.031-.074-.033-.161a8.5 8.5 0 0 0-.01-.4 19.813 19.813 0 0 0-.055-.808l-.038-.41a7.668 7.668 0 0 0-.013-.292c-.005-.087-.01-.187-.018-.3l-.022-.344c-.008-.117-.016-.232-.022-.345a189.32 189.32 0 0 0-.02-.298"/></g><g><path fill="#67449a" d="M105.787 42.875c-.004-.054.003-.09.018-.107s.053-.025.111-.024c.1-.006.193-.007.282-.008l.287-.003a.42.42 0 0 0 .069.002l.075-.004c.083-.004.133 0 .15.012.018.012.031.054.04.126.016.115.029.23.038.346.01.117.02.231.032.348a.172.172 0 0 1 .004.062.18.18 0 0 0 .003.063l.017.055c.006.02.012.04.022.057a.358.358 0 0 0 .097-.06c.177-.16.352-.326.525-.495.173-.17.345-.337.519-.502a.844.844 0 0 1 .132-.096.292.292 0 0 1 .154-.038c.158-.004.315-.009.47-.015.157-.006.315-.01.473-.014.012 0 .027.004.045.014a.12.12 0 0 1 .033.026c.005.011.003.024-.004.042a.119.119 0 0 1-.022.036c-.15.145-.3.292-.448.443-.149.15-.298.298-.447.444a3.833 3.833 0 0 1-.17.152 3.787 3.787 0 0 0-.168.152c-.055.05-.083.084-.084.102-.001.019.021.055.066.112.091.118.186.236.283.354.097.116.193.234.288.353.132.157.269.325.415.505.144.18.282.348.414.506.035.042.046.081.03.118-.017.037-.055.06-.112.07a.584.584 0 0 1-.068.008l-.075.005a4.725 4.725 0 0 1-.265.018 3.81 3.81 0 0 0-.265.023.505.505 0 0 1-.249-.023.532.532 0 0 1-.194-.134 6.554 6.554 0 0 1-.209-.246 7.03 7.03 0 0 0-.21-.246c-.094-.104-.188-.209-.282-.316l-.283-.315c-.036-.042-.066-.063-.09-.064-.023 0-.055.018-.1.056a.258.258 0 0 0-.102.245c.019.162.034.323.046.483l.04.482c.01.073.006.118-.013.14-.017.02-.065.032-.144.036-.125.006-.26.01-.404.014-.143.003-.277.004-.403.003-.096.001-.149-.042-.158-.128a5.818 5.818 0 0 1-.028-.342l-.036-.562-.043-.672-.043-.676-.037-.57-.022-.353"/></g><g><path fill="#67449a" d="M114.053 44.38c.01.171.021.342.036.516l.039.412c.012.123.027.26.045.411.009.061-.017.094-.075.097a26.53 26.53 0 0 0-.437.012c-.146.006-.292.01-.438.014-.042.001-.067-.006-.076-.024a.172.172 0 0 1-.018-.07l-.019-.296a10.432 10.432 0 0 0-.025-.3l-.093-1.156c-.01-.09-.016-.18-.016-.271a3.196 3.196 0 0 0-.03-.371.081.081 0 0 0-.032-.051.152.152 0 0 0-.063-.019 2.939 2.939 0 0 0-.118-.004l-.049.002a1.184 1.184 0 0 0-.097.007.143.143 0 0 0-.055.017.086.086 0 0 0-.035.042.95.95 0 0 0-.03.08c-.039.155-.079.31-.116.464a9.837 9.837 0 0 1-.299.952c-.061.165-.132.326-.214.482a.908.908 0 0 1-.182.24c-.077.075-.154.148-.234.222a.573.573 0 0 1-.234.138c-.09.028-.186.046-.284.054a1.572 1.572 0 0 1-.402-.008 3.444 3.444 0 0 1-.387-.078c-.06-.016-.097-.034-.113-.057s-.022-.062-.017-.117c.019-.106.035-.214.051-.323.016-.11.035-.218.058-.325.012-.076.062-.106.15-.088l.058.016.057.017a.676.676 0 0 0 .373-.005.51.51 0 0 0 .278-.207c.03-.045.057-.091.081-.14a.75.75 0 0 0 .057-.149c.047-.17.093-.338.136-.505.044-.168.083-.335.118-.504.036-.154.066-.31.09-.466.023-.158.048-.313.077-.468.008-.061.021-.102.038-.118.018-.018.062-.031.133-.042a.464.464 0 0 0 .05-.005.106.106 0 0 1 .043 0l.268-.015.353-.02c.127-.005.257-.012.39-.019l.38-.018.326-.016.218-.01c.074 0 .12.007.136.02.016.014.025.055.03.124a33.862 33.862 0 0 1 .051 1.01l.008.117c.002.045.007.088.011.13.005.041.011.093.02.154l.03.516"/></g><g><path fill="#67449a" d="M116.003 45.58c0 .058-.008.094-.024.112-.015.017-.054.027-.117.03-.12.002-.243.006-.368.012a6.373 6.373 0 0 1-.37.007.964.964 0 0 1-.124.001c-.03-.002-.05-.01-.064-.02a.086.086 0 0 1-.026-.054 15.63 15.63 0 0 1-.066-.952 17.058 17.058 0 0 0-.058-.853 18.049 18.049 0 0 1-.032-.35 3.732 3.732 0 0 1-.013-.35 6.15 6.15 0 0 0-.05-.77c-.007-.05-.005-.084.004-.099.01-.014.038-.023.083-.024.15-.008.293-.015.43-.02.138-.004.282-.01.431-.017.068.003.103.033.106.087.007.05.013.1.016.147l.01.145c.012.134.02.262.024.383.003.122.013.251.03.388.005.068.014.108.03.119.015.01.06.017.136.02.058 0 .115 0 .169-.005.054-.005.108-.006.162-.006.071 0 .117-.03.138-.093.018-.041.036-.083.051-.125.016-.043.034-.084.052-.124.124-.29.307-.519.55-.686.245-.168.533-.292.867-.374.27-.067.526-.077.768-.029a1.932 1.932 0 0 1 1.089.641c.115.133.203.284.264.455.045.129.085.258.118.387.034.129.046.263.038.4-.01.16-.035.314-.077.46-.04.145-.11.287-.211.426-.072.097-.15.193-.231.283-.083.091-.18.17-.292.237a2.1 2.1 0 0 1-.67.258 3.944 3.944 0 0 1-.73.071 1.803 1.803 0 0 1-.5-.074 2.742 2.742 0 0 1-.462-.184 1.05 1.05 0 0 1-.346-.277 1.505 1.505 0 0 1-.215-.366 2.166 2.166 0 0 1-.087-.235l-.075-.24c-.02-.061-.064-.093-.13-.093-.076 0-.134.003-.175.009a.161.161 0 0 0-.095.04.139.139 0 0 0-.039.086 1.002 1.002 0 0 0 0 .152l.017.206c.008.098.016.202.023.312.008.111.015.217.024.32zm1.508-1.64V44a.58.58 0 0 0 .114.32c.07.089.15.164.243.223.093.06.189.102.287.129a.814.814 0 0 0 .24.034c.3-.014.525-.112.676-.293.151-.18.218-.413.2-.696a1.897 1.897 0 0 0-.024-.183.618.618 0 0 0-.1-.236.735.735 0 0 0-.229-.213.995.995 0 0 0-.415-.125c-.256-.024-.47.026-.645.152a.86.86 0 0 0-.35.583c0 .028 0 .055-.002.082l.003.097z"/></g><g><path fill="#67449a" d="M124.251 43.903c.026.383.05.769.07 1.156.003.04.003.07.003.09l-.003.09c-.006.05-.017.084-.035.1-.018.014-.056.022-.114.02-.126 0-.25.006-.375.019-.124.013-.25.016-.375.008-.109-.006-.167-.07-.175-.188l-.04-.635a2.037 2.037 0 0 0-.016-.154l-.023-.16c-.008-.061-.045-.076-.11-.044a.41.41 0 0 0-.063.033.347.347 0 0 1-.064.033l-.253.1a3.037 3.037 0 0 1-.254.088c-.213.061-.414.071-.602.03a1.967 1.967 0 0 1-.549-.214.911.911 0 0 1-.261-.218.587.587 0 0 1-.13-.296l-.047-.366a9.926 9.926 0 0 1-.043-.37l-.014-.234a91.26 91.26 0 0 1-.03-.657c-.006-.08.034-.122.117-.126a11.822 11.822 0 0 1 .605-.035l.187-.008c.05 0 .09.002.12.005.03.002.05.008.063.019.013.01.022.026.026.05l.009.095c.005.153.008.287.01.405 0 .118.004.251.01.4.004.062.01.121.017.178.008.058.023.118.043.178a.366.366 0 0 0 .145.202.45.45 0 0 0 .285.066.972.972 0 0 0 .552-.184.492.492 0 0 0 .126-.135.3.3 0 0 0 .036-.179 7.364 7.364 0 0 1-.04-.503 14.95 14.95 0 0 0-.025-.506l-.003-.043c0-.062.01-.102.027-.122.017-.018.062-.03.133-.033a13.172 13.172 0 0 0 .327-.016 22.363 22.363 0 0 0 .403-.02c.083-.006.136 0 .158.02.022.022.04.068.052.14.008.06.015.135.02.225l.017.252c.005.08.01.175.012.288.02.387.044.772.071 1.156"/></g><g><path fill="#67449a" d="M125.554 45.245l-.337.016c-.09.008-.144.006-.16-.008-.016-.014-.026-.062-.032-.145-.004-.091-.01-.181-.013-.273l-.015-.271-.079-1.232c-.024-.394-.049-.802-.071-1.226a.274.274 0 0 0-.006-.046.179.179 0 0 1-.006-.04 1.654 1.654 0 0 1-.005-.128c0-.032.01-.056.026-.073a.16.16 0 0 1 .08-.036c.034-.007.086-.011.152-.015l.237-.01c.125-.007.272-.014.444-.02l.549-.022c.196-.007.382-.016.559-.024.177-.01.332-.016.468-.023.135-.007.227-.012.278-.018.086-.004.142.005.167.027.024.022.038.066.043.13.006.096.01.185.014.27.003.085.01.173.02.263.005.08-.037.121-.124.126-.05.002-.1.003-.147.001a2.01 2.01 0 0 0-.147.002l-.917.044-.505.024c-.063.003-.103.013-.118.028-.016.016-.02.05-.012.104.009.072.016.138.025.195a7.3 7.3 0 0 1 .025.194c.01.08.057.118.144.114l.123-.006.161-.008.163-.008.122-.006c.095-.012.14.023.138.102l.023.358c.002.04-.03.065-.096.076a2.313 2.313 0 0 0-.122.008l-.161.016a4.556 4.556 0 0 1-.284.025.182.182 0 0 0-.098.035c-.019.017-.028.045-.025.086l.027.423c-.004.076.043.112.138.108.046-.002.089-.005.13-.01.043-.004.086-.006.132-.008.166-.005.333-.01.497-.019.163-.008.33-.014.497-.019.066-.003.13-.007.192-.012l.193-.012c.058-.003.1.003.124.015.023.014.04.044.046.091.015.094.028.186.04.275.012.092.02.183.026.277.006.076-.005.125-.03.148-.026.024-.083.036-.17.036l-.26.013-.393.018-.47.023c-.167.009-.327.015-.478.02l-.422.018a6.033 6.033 0 0 1-.3.009"/></g><g><path fill="#67449a" d="M132.134 44.416l.024.225c.006.056.011.131.018.225.002.04-.005.066-.024.08-.018.013-.054.02-.108.019-.122.002-.24.005-.362.01-.121.004-.242.008-.363.014-.07.003-.113 0-.128-.01-.016-.01-.028-.047-.036-.107-.018-.17-.04-.343-.06-.52-.023-.177-.043-.35-.063-.52l-.003-.059a.358.358 0 0 0-.01-.065c-.003-.043-.036-.067-.1-.072a6.47 6.47 0 0 0-.495.022 6.12 6.12 0 0 1-.49.021c-.084 0-.119.037-.106.108.015.178.024.35.027.517.002.166.014.345.034.537.006.024.01.049.014.072a.369.369 0 0 1 .002.073c.003.05-.025.078-.084.08a2.081 2.081 0 0 1-.243.001 3.152 3.152 0 0 0-.337.014 3.02 3.02 0 0 1-.338.014.336.336 0 0 1-.146-.029c-.022-.015-.033-.053-.038-.114a26.352 26.352 0 0 0-.042-.568 12.425 12.425 0 0 1-.036-.566c-.017-.322-.032-.642-.046-.96l-.04-.958-.01-.169c-.005-.068.033-.104.112-.108a6.23 6.23 0 0 0 .178-.012c.06-.005.121-.007.184-.006.083 0 .163 0 .24-.003.077-.002.158-.002.242.002.084.003.135.01.155.022.02.012.032.054.036.127.015.173.027.327.036.463.008.136.016.288.023.46.004.064.008.116.012.153.005.038.017.066.037.083.02.017.05.027.093.028.042.002.1.001.175-.003.133-.006.263-.015.39-.027.127-.011.254-.022.383-.031.082-.005.122-.038.118-.1a.162.162 0 0 1-.007-.053.353.353 0 0 0 0-.054 27.5 27.5 0 0 1-.052-.532 36.486 36.486 0 0 0-.053-.531c-.013-.056.01-.087.07-.09l.767-.037a.673.673 0 0 1 .1 0c.063.005.105.015.125.03.019.015.033.052.04.11a15.625 15.625 0 0 1 .09 1.195l.014.422c.01.174.02.321.028.442.008.122.017.25.028.386.01.135.02.252.025.35"/></g><g><path fill="#67449a" d="M132.697 41.542c-.004-.066.003-.105.02-.119.019-.013.067-.018.146-.015.085.003.169.002.254-.004.085-.006.17-.009.254-.01.05-.002.1-.006.151-.012a.836.836 0 0 1 .16-.002c.063.003.107.018.13.04.025.022.04.062.043.12a.152.152 0 0 1 .006.052v.052l.092 1.432.005.074a.406.406 0 0 0 .01.073c.002.026.013.04.035.047a.065.065 0 0 0 .055-.03.218.218 0 0 0 .069-.086c.196-.267.388-.545.576-.835.188-.29.378-.567.57-.831a.43.43 0 0 1 .165-.163.599.599 0 0 1 .266-.054c.109.006.22.004.334-.005.114-.01.225-.014.334-.016.1.002.165.015.196.039.031.025.048.08.05.167.014.37.035.749.062 1.137.027.39.048.768.063 1.137.005.143.013.275.026.4l.038.398a.653.653 0 0 0 .007.065c.003.018.004.04.001.064a.128.128 0 0 1-.032.082c-.02.02-.05.028-.093.023-.133.003-.269.005-.407.006a6.281 6.281 0 0 0-.411.017 2.16 2.16 0 0 1-.088.002.268.268 0 0 1-.083-.016.119.119 0 0 1-.049-.036.087.087 0 0 1-.025-.052c0-.134-.01-.28-.028-.434a3.808 3.808 0 0 1-.027-.435 18.705 18.705 0 0 0-.02-.399 10.831 10.831 0 0 1-.019-.399.153.153 0 0 0-.008-.032c-.005-.014-.016-.021-.033-.02-.012 0-.021.004-.027.012a12.268 12.268 0 0 0-.576.743c-.184.259-.35.51-.502.757a5.02 5.02 0 0 0-.089.135c-.028.045-.058.09-.088.135a.23.23 0 0 1-.13.109 1.053 1.053 0 0 1-.326.051c-.048 0-.097.002-.147.005-.083 0-.168.005-.252.015-.086.01-.17.012-.253.01-.097-.003-.155-.015-.175-.036-.02-.02-.03-.074-.032-.161a8.48 8.48 0 0 0-.01-.4c-.006-.133-.014-.265-.022-.4a9.865 9.865 0 0 0-.033-.408l-.038-.41a7.808 7.808 0 0 0-.013-.293 155.93 155.93 0 0 1-.04-.644l-.023-.344c-.006-.112-.013-.211-.019-.298"/></g><g><path fill="#67449a" d="M137.377 41.289c-.003-.058.006-.1.03-.126.024-.026.067-.038.13-.034.146 0 .286-.006.421-.02s.275-.016.422-.009c.091.003.136.042.133.119l.012.192.022.334a27.927 27.927 0 0 0 .059.784c.009.118.018.213.028.29.008.076.015.113.02.113.046-.003.075-.015.091-.037.054-.065.105-.129.154-.192l.146-.193c.089-.12.176-.242.262-.367.086-.124.173-.246.261-.366a481.452 481.452 0 0 0 .505-.688.152.152 0 0 1 .054-.038.265.265 0 0 1 .08-.02c.03-.003.075-.007.134-.01l.487-.023c.066-.003.116-.004.15-.004.033 0 .058.005.075.014.018.01.029.029.033.057.002.026.008.063.016.11.01.09.021.222.035.396l.04.578.041.656c.015.226.027.435.037.624a24.253 24.253 0 0 0 .043.73c.003.044.006.08.01.112a.44.44 0 0 1-.001.112c-.006.046-.02.078-.038.094-.02.015-.06.023-.118.022a2.856 2.856 0 0 0-.327.013c-.11.01-.22.015-.329.013a.906.906 0 0 0-.134.006c-.052.006-.084.004-.097-.006-.013-.01-.02-.045-.02-.102a20.805 20.805 0 0 1-.034-.575c-.005-.127-.015-.27-.03-.43a17.746 17.746 0 0 0-.018-.252 24.512 24.512 0 0 0-.026-.251c-.001-.026-.011-.043-.029-.053-.017-.006-.035 0-.055.019a.778.778 0 0 0-.058.068c-.154.196-.307.391-.457.585-.15.195-.303.39-.457.586a2.669 2.669 0 0 1-.166.209 2.645 2.645 0 0 0-.164.21.212.212 0 0 1-.176.089 5.46 5.46 0 0 0-.434.016c-.143.01-.288.016-.435.015-.033.002-.055-.005-.067-.018a.14.14 0 0 1-.025-.059l-.005-.073a.39.39 0 0 0-.01-.072 128.047 128.047 0 0 0-.11-1.52.402.402 0 0 1-.014-.114l-.018-.285a66.73 66.73 0 0 1-.024-.374l-.025-.385c-.007-.121-.013-.225-.02-.312zm1.855-.574a.524.524 0 0 1-.446-.212.23.23 0 0 1-.04-.134.348.348 0 0 1 .14-.271.531.531 0 0 1 .337-.118c.27-.008.42.115.449.371a.199.199 0 0 1-.026.13.417.417 0 0 1-.1.116.496.496 0 0 1-.145.083z"/></g><g><path fill="#fdc035" d="M50.842 12.338l3.39 24.085c.024.175-.127.332-.33.342l-5.115.247c-.196.009-.362-.122-.37-.293l-.21-4.932c-.006-.164-.157-.292-.344-.294-.61-.007-1.254-.012-1.83-.013-.178 0-.324.115-.345.268l-.728 5.161c-.021.146-.159.259-.328.267l-11.051.569c-.25.012-.433-.199-.352-.404l9.757-24.683a.346.346 0 0 1 .31-.205l7.176-.382zm-3.924 13.588h.684c.198 0 .357-.143.35-.316l-.152-3.706c-.016-.375-.645-.399-.699-.026l-.53 3.706z"/></g><g><path fill="#00b3e2" d="M73.308 18.596L67.634 3.988c-.047-.125-.181-.208-.332-.208H57.08c-.191 0-.348.134-.35.3l-.542 29.979c-.003.176.166.32.369.31l8.742-.401c.173-.009.314-.125.33-.276l1.063-9.586c.036-.325.555-.38.68-.072l3.102 7.627c.049.123.181.204.33.204h3.283c.154 0 .291-.088.335-.217l2.704-7.788c.116-.33.674-.267.687.078l.551 14.78c.006.164.162.294.35.294h6.943c.189 0 .345-.13.35-.295l1.045-28.235c.006-.172-.153-.315-.35-.315h-9.104a.352.352 0 0 0-.332.205l-3.294 8.227c-.11.274-.556.272-.663-.003"/></g><g><path fill="#d53292" d="M119.081 21.231c-.675-.04-1.441-.087-2.095-.131-.188-.013-.332-.146-.331-.31.026-4.632-.064-9.87-.41-14.856-.011-.153-.147-.276-.322-.292-2.347-.224-7.308-.427-8.716-.482-.206-.007-.377.137-.374.317l.463 28.413c.003.17.162.307.358.307l8.233.02c.19 0 .349-.128.36-.293.058-.828.217-3.387.32-7.454.004-.17.164-.308.36-.308h2.178c.198 0 .36.14.36.312v11.851c0 .173.16.314.359.314h2.66c.194 0 .354-.137.359-.306l.72-26.667c.005-.166-.14-.306-.331-.32l-3.38-.228c-.21-.013-.388.13-.388.312v9.49c0 .18-.175.324-.383.311"/></g><g><path fill="#d53292" d="M139.483 11.427l-4.868 10.699c-.147.324-.7.227-.694-.12l.17-8.153c.003-.167-.144-.306-.334-.318l-6.977-.443c-.203-.012-.378.123-.386.3l-1.023 22.512c-.008.177.154.325.359.325h7.5a.364.364 0 0 0 .329-.187l4.166-8.268c.157-.31.689-.212.689.126v7.85c0 .177.166.318.368.314l5.7-.123c.197-.004.354-.146.35-.317l-.41-24.086c-.003-.171-.163-.308-.36-.308h-4.245a.362.362 0 0 0-.334.197"/></g><g><g/><g clip-path="url(#julhb)"><path fill="#67449a" d="M172.311 18.699c.004.128-.085.241-.223.288l-1.979.673c-.13.044-.217.152-.222.273l-.756 18.38c-.006.158-.148.285-.33.295l-7.3.375c-.193.01-.359-.114-.37-.282a169 169 0 0 1-.28-5.73c-.01-.324-.52-.412-.67-.115l-3.14 6.154a.353.353 0 0 1-.3.18l-9.038.458c-.268.013-.454-.23-.335-.44l6.514-11.487c.079-.14.028-.306-.123-.39a14.304 14.304 0 0 1-7.136-12.634c0-9.195 8.43-15.855 24.668-13.684.166.022.295.142.303.287zm-11.543 3.847c.05-2.478.16-5.025.357-7.486.016-.203-.2-.365-.43-.32-2.87.567-3.202 6.44-.466 8.058z"/></g></g><g><path fill="#00b3e2" d="M104.84 36.59l-3.847.026c-.184 0-.34-.12-.36-.28l-.848-6.866c-.02-.159-.174-.28-.358-.28h-1.283l-.359.299c-.185 3.183-.35 5.963-.403 6.851-.01.166-.168.295-.36.295l-8.288-.022c-.224 0-.392-.175-.353-.366l4.66-23.417c.03-.15.18-.26.354-.26h7.366c.178 0 .329.113.355.266l4.078 23.394zm-6.496-10.181h.671c.216 0 .383-.161.36-.346l-.468-3.762c-.048-.384-.703-.367-.723.018a671.645 671.645 0 0 1-.203 3.761z"/></g><g><g/><g clip-path="url(#julhc)"><path fill="#fdc035" d="M43.196 4.986L.793 1.561c-.26-.021-.46.2-.372.415L6.696 17.48c.05.126.188.21.342.208l11.797-.086c.354-.003.499.393.209.569l-8.434 5.113c-.179.108-.206.33-.057.47l17.31 16.182c.181.17.505.114.599-.102l6.742-15.489c.082-.19-.062-.398-.295-.42l-9.459-.951c-.358-.036-.44-.458-.113-.593l12.847-5.315a.34.34 0 0 0 .18-.17l5.133-11.485c.087-.194-.064-.406-.301-.425"/></g></g></g></g></svg>